<svg width="69" height="56" viewBox="0 0 69 56" fill="none" xmlns="http://www.w3.org/2000/svg">
<rect width="56" height="56" rx="8" fill="#3758F9"/>
<path d="M44.1657 17.6267C42.6562 18.7798 42.6562 20.6456 44.1937 21.7987L47.548 24.3145C50.7067 26.6835 50.7067 30.541 47.548 32.91L41.3984 28.2978C39.819 27.1133 39.0223 25.5514 39.0223 24C39.0223 22.4486 39.819 20.8867 41.3983 19.7022L44.1238 17.6581C44.1378 17.6477 44.1517 17.6372 44.1657 17.6267Z" fill="#3758F9" stroke="white" stroke-width="2" stroke-miterlimit="10"/>
<path d="M46.8493 23.7893L44.1937 21.7977C42.6563 20.6446 42.6423 18.7892 44.1658 17.6257C45.6753 16.5145 48.0792 16.5355 49.5747 17.6571C50.3294 18.2232 50.7068 18.9674 50.7068 19.7012C50.7068 20.4349 50.3294 21.1792 49.5747 21.7452L48.9458 22.2169" fill="#3758F9"/>
<path d="M46.8493 23.7893L44.1937 21.7977C42.6563 20.6446 42.6423 18.7892 44.1658 17.6257C45.6753 16.5145 48.0792 16.5355 49.5747 17.6571C50.3294 18.2232 50.7068 18.9674 50.7068 19.7012C50.7068 20.4349 50.3294 21.1792 49.5747 21.7452L48.9458 22.2169" stroke="white" stroke-width="2" stroke-miterlimit="10"/>
<path d="M60.0285 38.2245C61.538 37.0714 61.538 35.2056 60.0005 34.0525L56.6462 31.5367C53.4875 29.1677 53.4875 25.3102 56.6462 22.9412L62.7958 27.5534C64.3752 28.7379 65.1719 30.2998 65.1719 31.8512C65.1719 33.4026 64.3752 34.9645 62.7959 36.149L60.0704 38.1931C60.0425 38.214 60.0285 38.2245 60.0285 38.2245Z" fill="#3758F9" stroke="white" stroke-width="2" stroke-miterlimit="10"/>
<path d="M57.3298 32.0701L59.9853 34.0617C61.5227 35.2148 61.5367 37.0702 60.0133 38.2337C58.5038 39.3449 56.0998 39.3239 54.6043 38.2023C53.8496 37.6362 53.4722 36.892 53.4722 36.1582C53.4722 35.4244 53.8496 34.6802 54.6043 34.1141L55.2472 33.6319" fill="#3758F9"/>
<path d="M57.3298 32.0701L59.9853 34.0617C61.5227 35.2148 61.5367 37.0702 60.0133 38.2337C58.5038 39.3449 56.0998 39.3239 54.6043 38.2023C53.8496 37.6362 53.4722 36.892 53.4722 36.1582C53.4722 35.4244 53.8496 34.6802 54.6043 34.1141L55.2472 33.6319" stroke="white" stroke-width="2" stroke-miterlimit="10"/>
</svg>
