<svg width="24" height="25" viewBox="0 0 24 25" fill="none" xmlns="http://www.w3.org/2000/svg">
<path d="M21.8055 10.8247H21V10.7832H12V14.7832H17.6515C16.827 17.1117 14.6115 18.7832 12 18.7832C8.6865 18.7832 6 16.0967 6 12.7832C6 9.4697 8.6865 6.7832 12 6.7832C13.5295 6.7832 14.921 7.3602 15.9805 8.3027L18.809 5.4742C17.023 3.8097 14.634 2.7832 12 2.7832C6.4775 2.7832 2 7.2607 2 12.7832C2 18.3057 6.4775 22.7832 12 22.7832C17.5225 22.7832 22 18.3057 22 12.7832C22 12.1127 21.931 11.4582 21.8055 10.8247Z" fill="#FFC107"/>
<path d="M3.15234 8.1287L6.43784 10.5382C7.32684 8.3372 9.47984 6.7832 11.9993 6.7832C13.5288 6.7832 14.9203 7.3602 15.9798 8.3027L18.8083 5.4742C17.0223 3.8097 14.6333 2.7832 11.9993 2.7832C8.15834 2.7832 4.82734 4.9517 3.15234 8.1287Z" fill="#FF3D00"/>
<path d="M12.0002 22.7835C14.5832 22.7835 16.9302 21.795 18.7047 20.1875L15.6097 17.5685C14.6057 18.329 13.3577 18.7835 12.0002 18.7835C9.39916 18.7835 7.19066 17.125 6.35866 14.8105L3.09766 17.323C4.75266 20.5615 8.11366 22.7835 12.0002 22.7835Z" fill="#4CAF50"/>
<path d="M21.8055 10.8247H21V10.7832H12V14.7832H17.6515C17.2555 15.9017 16.536 16.8662 15.608 17.5687L15.6095 17.5677L18.7045 20.1867C18.4855 20.3857 22 17.7832 22 12.7832C22 12.1127 21.931 11.4582 21.8055 10.8247Z" fill="#1976D2"/>
</svg>
