<svg width="24" height="24" viewBox="0 0 24 24" fill="none" xmlns="http://www.w3.org/2000/svg">
<g clip-path="url(#clip0_3745_44690)">
<path d="M8.57087 11.1437C10.9378 11.1437 12.8566 9.22491 12.8566 6.85798C12.8566 4.49105 10.9378 2.57227 8.57087 2.57227C6.20394 2.57227 4.28516 4.49105 4.28516 6.85798C4.28516 9.22491 6.20394 11.1437 8.57087 11.1437Z" stroke="#737791" stroke-width="2" stroke-linecap="round" stroke-linejoin="round"/>
<path d="M0.855469 23.1445H8.56976H16.284V22.2151C16.2704 20.9085 15.9258 19.6266 15.2824 18.4893C14.6391 17.3519 13.7179 16.3962 12.6051 15.7113C11.4922 15.0265 10.2239 14.6349 8.91865 14.5731C8.80228 14.5676 8.68595 14.5647 8.56976 14.5645C8.45356 14.5647 8.33723 14.5676 8.22086 14.5731C6.91562 14.6349 5.64733 15.0265 4.53445 15.7113C3.42158 16.3962 2.50045 17.3519 1.85707 18.4893C1.21372 19.6266 0.869116 20.9085 0.855469 22.2151V23.1445Z" stroke="#737791" stroke-width="2" stroke-linecap="round" stroke-linejoin="round"/>
<path d="M15.4258 11.1437C17.7927 11.1437 19.7115 9.22491 19.7115 6.85798C19.7115 4.49105 17.7927 2.57227 15.4258 2.57227" stroke="#737791" stroke-width="2" stroke-linecap="round" stroke-linejoin="round"/>
<path d="M19.7121 23.1437H23.1406V22.2142C23.1269 20.9075 22.7823 19.6256 22.139 18.4883C21.4956 17.3509 20.5745 16.3952 19.4616 15.7104C18.7423 15.2677 17.9578 14.9475 17.1406 14.7598" stroke="#737791" stroke-width="2" stroke-linecap="round" stroke-linejoin="round"/>
</g>
<defs>
<clipPath id="clip0_3745_44690">
<rect width="24" height="24" fill="white"/>
</clipPath>
</defs>
</svg>
